<?xml version="1.0" encoding="UTF-8"?>
<svg xmlns="http://www.w3.org/2000/svg" xmlns:xlink="http://www.w3.org/1999/xlink" width="25px" height="25px" viewBox="0 0 25 25" version="1.1">
<g id="surface1">
<path style=" stroke:none;fill-rule:nonzero;fill:rgb(0%,0%,0%);fill-opacity:1;" d="M 14.0625 6.789062 C 13.039062 6.945312 12.792969 7 11.988281 7.273438 C 10.472656 7.796875 9.652344 8.351562 8.515625 9.613281 C 7.925781 10.265625 7.574219 10.777344 7.183594 11.542969 C 6.894531 12.101562 6.449219 13.363281 6.347656 13.898438 C 6.257812 14.351562 6.257812 14.351562 5.867188 14.121094 C 5.683594 14.007812 5.46875 13.84375 5.390625 13.746094 C 5.3125 13.652344 5.148438 13.453125 5.023438 13.304688 C 4.730469 12.960938 4.566406 12.613281 4.199219 11.597656 C 3.8125 10.53125 3.351562 9.574219 3.054688 9.242188 C 2.921875 9.09375 2.71875 8.9375 2.558594 8.859375 C 2.324219 8.746094 2.25 8.730469 1.972656 8.753906 C 1.570312 8.785156 1.273438 8.976562 0.765625 9.527344 C 0.0625 10.28125 -0.109375 10.75 0.0703125 11.429688 C 0.253906 12.140625 0.484375 12.558594 1.230469 13.558594 C 1.773438 14.289062 1.992188 14.488281 2.90625 15.0625 C 3.246094 15.277344 3.652344 15.566406 3.8125 15.703125 C 4.132812 15.976562 4.289062 16.054688 5.226562 16.386719 C 5.585938 16.515625 6.234375 16.78125 6.664062 16.984375 C 7.984375 17.59375 8.691406 17.898438 9.253906 18.089844 C 9.785156 18.277344 9.800781 18.277344 10.890625 18.324219 C 11.890625 18.367188 12.074219 18.363281 12.890625 18.273438 C 14.28125 18.109375 14.535156 18.101562 15.4375 18.167969 C 16.683594 18.257812 16.84375 18.167969 16.28125 17.703125 C 15.933594 17.421875 15.582031 17.269531 15.109375 17.210938 C 14.96875 17.191406 14.785156 17.132812 14.691406 17.078125 L 14.53125 16.984375 L 14.679688 16.851562 C 14.773438 16.761719 14.96875 16.679688 15.257812 16.601562 C 15.824219 16.453125 16.234375 16.242188 16.75 15.828125 C 17.691406 15.074219 17.890625 14.964844 18.496094 14.898438 C 19.042969 14.839844 19.175781 14.882812 19.453125 15.203125 C 19.578125 15.351562 19.769531 15.542969 19.882812 15.628906 C 20.132812 15.828125 20.203125 15.828125 21.101562 15.628906 C 21.476562 15.546875 21.90625 15.476562 22.054688 15.476562 C 22.414062 15.476562 22.570312 15.398438 22.625 15.195312 C 22.695312 14.945312 22.613281 14.730469 22.414062 14.664062 C 22.140625 14.570312 21.679688 14.589844 21.164062 14.722656 C 20.582031 14.867188 20.554688 14.867188 20.390625 14.742188 C 20.296875 14.667969 20.265625 14.59375 20.265625 14.484375 C 20.265625 14.179688 20.84375 12.894531 21.140625 12.542969 C 21.25 12.414062 21.335938 12.378906 21.921875 12.246094 C 22.640625 12.085938 23.421875 11.816406 23.796875 11.59375 C 23.980469 11.484375 24.078125 11.382812 24.171875 11.203125 C 24.238281 11.0625 24.433594 10.777344 24.59375 10.554688 C 24.761719 10.335938 24.921875 10.0625 24.957031 9.945312 C 25.03125 9.679688 24.980469 9.300781 24.847656 9.109375 C 24.730469 8.945312 23.863281 8.167969 23.179688 7.617188 C 22.285156 6.90625 21.875 6.820312 20.390625 7.0625 C 19.472656 7.207031 19.125 7.203125 18.140625 7.007812 C 16.167969 6.621094 15.398438 6.582031 14.0625 6.789062 Z M 14.0625 6.789062 "/>
</g>
</svg>
